<?xml version="1.0" encoding="UTF-8"?><svg id="a" xmlns="http://www.w3.org/2000/svg" viewBox="0 0 16 16"><defs><style>.b{fill:#14a7ad;}</style></defs><path class="b" d="M15.81,.53c-.17-.18-.41-.29-.64-.36-.27-.08-.55-.13-.83-.15-.62-.05-1.39,0-2.25,.17-1.72,.35-3.82,1.22-5.77,2.91-1.95,1.69-3.17,3.72-3.76,5.42-.29,.85-.44,1.63-.43,2.27,0,.32,.05,.62,.15,.88,.02,.04,.04,.08,.06,.12-.79,1.11-1.54,2.25-2.26,3.41-.15,.24-.08,.56,.16,.72,.23,.15,.55,.09,.7-.15h0c.69-1.12,1.41-2.21,2.16-3.27,.29,.14,.62,.19,.96,.18,.51-.02,1.1-.19,1.72-.49,1.25-.6,2.74-1.79,4.3-3.64l1.52-1.55c.2-.21,.2-.53,0-.74l-.73-.74,1.31,.21c.16,.03,.33-.03,.44-.15,.22-.23,.44-.46,.66-.68,.66-.68,1.29-1.33,1.76-1.89,.31-.38,.59-.75,.75-1.11,.16-.35,.28-.77,.11-1.19-.03-.06-.06-.12-.11-.17ZM3.73,11.62c1.65-2.25,3.51-4.4,5.58-6.23l1.21,1.23-1.17,1.2s-.02,.02-.03,.03c-1.5,1.79-2.89,2.87-3.98,3.39-.54,.26-.99,.38-1.32,.39-.1,0-.19,0-.29-.02h0Zm6.77-7.22c1.31-1.03,2.7-1.91,4.17-2.6-.12,.18-.26,.36-.4,.52-.44,.53-1.03,1.13-1.68,1.8l-.51,.52-1.58-.25h0Zm3.35-3.36C9.59,3.15,6.05,6.8,3.15,10.68c0-.46,.12-1.09,.37-1.81,.53-1.53,1.65-3.41,3.45-4.98,1.81-1.56,3.75-2.36,5.31-2.68,.51-.11,1.04-.17,1.56-.17Z"/></svg>